<?xml version="1.0" encoding="UTF-8"?>
<svg id="Layer_1" data-name="Layer 1" xmlns="http://www.w3.org/2000/svg" xmlns:xlink="http://www.w3.org/1999/xlink" viewBox="0 0 1080 320.26">
  <defs>
    <style>
      .cls-1 {
        fill: url(#linear-gradient);
      }

      .cls-2 {
        fill: #22005d;
      }
    </style>
    <linearGradient id="linear-gradient" x1="75.13" y1="73.61" x2="248.02" y2="246.5" gradientUnits="userSpaceOnUse">
      <stop offset="0" stop-color="#5c66f9"/>
      <stop offset=".06" stop-color="#565df8"/>
      <stop offset=".34" stop-color="#3c38f5"/>
      <stop offset=".59" stop-color="#2a1df3"/>
      <stop offset=".82" stop-color="#1e0cf2"/>
      <stop offset="1" stop-color="#1b07f2"/>
    </linearGradient>
  </defs>
  <path id="qvHK92" class="cls-1" d="M148.5,282.16l-84.32-48.72c-7.46-4.31-14.57-11.06-14.57-20.45l.05-104.9c0-8,4.69-15.43,11.2-19.18l26.74-15.41,60.31-34.93c7.38-4.28,16.65-5.94,24.61-1.37l88.02,50.53c8.11,4.66,13.16,12.24,13.15,21.82l-.14,103.47c-.01,8.79-6.33,15.61-13.48,19.75l-84.04,48.6c-8.96,5.18-18.05,6.27-27.54.79ZM219.38,107.35h-31.98s-.14,20.44-.14,20.44l-59.56-34.29-16.02,27.71,107.58,61.99.12-75.86ZM135.47,212.88c-.08-7.15-.03-13.5.35-20.49l59.44,34.3,16.12-27.58-107.59-62.18c-.3,5.98-.1,11.33-.09,17.05l.04,34.43v4.97s.14,19.53.14,19.53l31.59-.02Z"/>
  <path class="cls-2" d="M870.73,220.69c-11.87,2.96-23.54,2.88-35.03.43-10.89-2.32-18.54-10.06-21.16-21.09-3.61-15.19-3.52-31.51.16-46.74,2.63-10.85,10.62-18.23,21.3-20.15s21.85-2.03,32.7.17c10.95,2.22,18.71,9.94,21.21,21.04,3.4,15.07,3.43,31.02-.06,46.13-2.31,10.03-8.94,17.66-19.14,20.2ZM869.89,195.36c2.07-9.8,5.09-41.99-7.66-45.71-6.84-2-14.65-2.25-21.32.46-10.71,4.36-8.5,34.07-6.68,43.83.77,4.12,3.02,8.71,6.8,10.47,5.53,2.57,25.75,5.58,28.85-9.06ZM608.5,163.52l.1,58.51,20.68-.05-.03-60.68c0-11.65-4.8-24.95-17.21-28.53-14.21-4.09-28.06.89-40.13,9.2l-3.84-9.08-16.88.02v89.11s20.68-.08,20.68-.08l.02-64.41c7.33-5.48,15.75-8.49,25.27-7.18,6.51.89,11.32,6.67,11.33,13.17ZM1009.6,163.54l.07,58.44,20.71.02-.03-59.91c0-12.08-4.38-25.66-17.02-29.31-14.59-4.21-28.16,1.05-40.35,9.12l-3.89-9.11-16.77.22.03,88.98,20.62-.04v-64.39c6.63-5.03,13.94-7.77,22.91-7.54,7.56.2,13.72,5.93,13.72,13.52ZM456,192.23c.02-9.61,6.07-17.65,14.88-20.48,5.05-1.63,10.37-2.07,15.7-2.06l23.43.02c.25-8.2,1.34-18.12-8.31-20.51-3.52-.87-7.53-1.32-11.28-1.33l-27.87-.04-.11-11.96c15.58-3.92,31.83-5.55,47.85-3,11.81,1.88,20.22,10.75,20.26,22.83l.2,66.32-16.06-.09-3.51-9.24c-10.46,6.29-21.38,10.52-33.48,10.34-12.29-.19-21.74-8.96-21.72-21.22l.02-9.56ZM510.07,203.03v-23.24c-8.25.29-15.9.46-23.48,1.56-7.23,1.04-10.57,7.09-10.22,13.69.19,3.58.34,7.09,2.57,9.71,6.5,7.62,22.3,1.27,31.13-1.72ZM715.88,187.1c-1.24-10.08-9.14-17.17-19.29-17.43l-24.76-.64c-2.37-.06-5.58-1.48-6.72-2.94-2.28-2.92-2.12-12.09.42-15.14,1.16-1.39,4.48-3.12,6.7-3.13l40.25-.15.03-12.3c-15.1-3.02-39.17-5.77-53.59-.03-13.62,5.41-13.8,19.36-12.66,31.96.7,7.74,5.56,13.96,12.88,16.51,5.05,1.76,10.39,2.11,15.79,2.15l15.09.11c2.35.02,5.69,1.72,6.85,3.28,2.58,3.48,2.47,11.94-.09,15.02-1.14,1.37-4.46,2.8-6.7,2.8l-42.76.13.02,12.46c16.52,2.96,43.85,6.11,58.75-1.17,11.56-5.65,11.17-20.09,9.77-31.5ZM753.03,194.21c-2.52-10.97-2.55-22.55.04-33.48,1.94-8.14,8.33-13.37,16.65-13.44l28.67-.24.04-11.94c-13.63-3.18-27.23-4.39-41-2.57-10.73,1.42-18.98,8.09-22.73,17.99-5.32,14.04-5.49,36.18-1.08,50.38,3.79,12.23,13.52,20.3,26.4,21.6,13.34,1.34,26.24-.22,39.64-3.35l.06-11.89-30.6-.26c-8.2-.07-14.32-5.15-16.08-12.81ZM363.87,205.1c-4.34-.56-7.61-5.7-7.62-10.25l-.11-45.29,22.54-.05-.04-16.65-56.29.03.04,16.6,13.89.11-.44,48.41c-.06,6.65,2.15,13.49,6.77,17.96,8.36,8.09,24.06,5.65,35.08,5.98l.02-15.07-13.83-1.79ZM414.45,163.77c11.14-11.02,19.64-11.56,34.73-10.19l-.08-21.12c-16.49-2.98-23.97,2.95-34.68,14.36l-4.62-13.99-16.08.21v88.97s20.7-.1,20.7-.1l.02-58.14ZM910.55,132.83v89.25s21.06,0,21.06,0v-89.25s-21.06,0-21.06,0ZM931.95,100.13c0-1.2-1.94-2.92-3.1-2.91l-16.09.08c-1.21,0-2.75,2.04-2.75,3.11l-.03,15.23c0,1.14,1.42,3.23,2.6,3.22l19.25-.27.11-18.46Z"/>
</svg>